{"title":"Pirates Of Silicon Valley [1999] x264","uid":12117534,"size":678932174,"categoryP":"video","categoryS":"movies","magnet":"?xt=urn:btih:29ed31be4e24aa4927677fa4964f12ff223a76d9&amp;dn=Pirates+Of+Silicon+Valley+%5B1999%5D+x264&amp;tr=udp%3A%2F%2Ftracker.openbittorrent.com%3A80&amp;tr=udp%3A%2F%2Fopen.demonii.com%3A1337&amp;tr=udp%3A%2F%2Ftracker.coppersurfer.tk%3A6969&amp;tr=udp%3A%2F%2Fexodus.desync.com%3A6969","seeders":0,"leechers":1,"uploader":null,"files":1,"time":1436755576,"description":"Format                      : MPEG-4\nFormat profile              : Base Media / Version 2\nCodec ID                    : mp42\nFile size                   : 647 MiB\nDuration                    : 1h 36mn\nOverall bit rate mode       : Variable\nOverall bit rate            : 936 Kbps\n\nVideo\nID                          : 1\nFormat                      : AVC\nFormat/Info                 : Advanced Video Codec\nFormat profile              : High@L3\nFormat settings, CABAC      : Yes\nFormat settings, ReFrames   : 4 frames\nCodec ID                    : avc1\nCodec ID/Info               : Advanced Video Coding\nDuration                    : 1h 36mn\nBit rate                    : 800 Kbps\nWidth                       : 720 pixels\nHeight                      : 480 pixels\nDisplay aspect ratio        : 4:3\nOriginal display aspect rat : 4:3\nFrame rate mode             : Variable\nFrame rate                  : 23.976 fps\nMinimum frame rate          : 19.978 fps\nMaximum frame rate          : 29.970 fps\nColor space                 : YUV\nChroma subsampling          : 4:2:0\nBit depth                   : 8 bits\nScan type                   : Progressive\nBits/(Pixel*Frame)          : 0.097\nStream size                 : 554 MiB (85%)\nWriting library             : x264 core 142 r2479 dd79a61\nEncoding settings           : cabac=1 / ref=3 / deblock=1:0:0 / analyse=0x3:0x113 / me=hex / subme=7 / psy=1 / psy_rd=1.00:0.00 / mixed_ref=1 / me_range=16 / chroma_me=1 / trellis=1 / 8x8dct=1 / cqm=0 / deadzone=21,11 / fast_pskip=1 / chroma_qp_offset=-2 / threads=6 / lookahead_threads=1 / sliced_threads=0 / nr=0 / decimate=1 / interlaced=0 / bluray_compat=0 / constrained_intra=0 / bframes=3 / b_pyramid=2 / b_adapt=1 / b_bias=0 / direct=1 / weightb=1 / open_gop=0 / weightp=2 / keyint=240 / keyint_min=24 / scenecut=40 / intra_refresh=0 / rc_lookahead=40 / rc=2pass / mbtree=1 / bitrate=800 / ratetol=1.0 / qcomp=0.60 / qpmin=0 / qpmax=69 / qpstep=4 / cplxblur=20.0 / qblur=0.5 / ip_ratio=1.40 / aq=1:1.00\nColor range                 : Limited\nColor primaries             : BT.601 NTSC\nTransfer characteristics    : BT.709\nMatrix coefficients         : BT.601\n\nAudio\nID                          : 2\nFormat                      : AAC\nFormat/Info                 : Advanced Audio Codec\nFormat profile              : LC\nCodec ID                    : 40\nDuration                    : 1h 36mn\nBit rate mode               : Variable\nBit rate                    : 128 Kbps\nChannel(s)                  : 2 channels\nChannel positions           : Front: L R\nSampling rate               : 48.0 KHz\nCompression mode            : Lossy\nStream size                 : 88.6 MiB (14%)\nTitle                       : Stereo / Stereo\nLanguage                    : English\n\nText\nID                          : 3\nFormat                      : Timed Text\nMuxing mode                 : sbtl\nCodec ID                    : tx3g\nDuration                    : 1h 36mn\nBit rate mode               : Variable\nBit rate                    : 100 bps\nStream size                 : 71.0 KiB (0%)\nLanguage                    : English\n\nMenu\nID                          : 4\nCodec ID                    : text\nDuration                    : 1h 36mn\nLanguage                    : English\n00:00:00.000                : Chapter 1\n00:03:41.304                : Chapter 2\n00:09:14.354                : Chapter 3\n00:13:49.629                : Chapter 4\n00:16:08.718                : Chapter 5\n00:20:02.334                : Chapter 6\n00:24:35.607                : Chapter 7\n00:28:21.266                : Chapter 8\n00:32:56.274                : Chapter 9\n00:37:02.604                : Chapter 10\n00:40:23.588                : Chapter 11\n00:45:56.554                : Chapter 12\n00:50:59.440                : Chapter 13\n00:54:44.848                : Chapter 14\n01:00:54.151                : Chapter 15\n01:04:56.943                : Chapter 16\n01:07:23.773                : Chapter 17\n01:12:25.141                : Chapter 18\n01:16:49.238                : Chapter 19\n01:19:24.393                : Chapter 20\n01:21:50.639                : Chapter 21\n01:26:09.297                : Chapter 22\n01:28:58.633                : Chapter 23\n01:31:27.549                : Chapter 24\nBit rate mode               : VBR","torrent":{"xt":"urn:btih:29ed31be4e24aa4927677fa4964f12ff223a76d9","amp;dn":"Pirates+Of+Silicon+Valley+%5B1999%5D+x264","amp;tr":["udp%3A%2F%2Ftracker.openbittorrent.com%3A80","udp%3A%2F%2Fopen.demonii.com%3A1337","udp%3A%2F%2Ftracker.coppersurfer.tk%3A6969","udp%3A%2F%2Fexodus.desync.com%3A6969"],"infoHash":"29ed31be4e24aa4927677fa4964f12ff223a76d9","infoHashBuffer":{"type":"Buffer","data":[41,237,49,190,78,36,170,73,39,103,127,164,150,79,18,255,34,58,118,217]},"announce":[],"urlList":[]}}